<svg width="34" height="24" viewBox="0 0 34 24" fill="none" xmlns="http://www.w3.org/2000/svg">
<path fill-rule="evenodd" clip-rule="evenodd" d="M20.4 0H6C4.4087 0 2.88258 0.632141 1.75736 1.75736C0.632141 2.88258 0 4.4087 0 6V18C0 19.5913 0.632141 21.1174 1.75736 22.2426C2.88258 23.3679 4.4087 24 6 24H20.4C21.9913 24 23.5174 23.3679 24.6426 22.2426C25.7679 21.1174 26.4 19.5913 26.4 18V6C26.4 4.4087 25.7679 2.88258 24.6426 1.75736C23.5174 0.632141 21.9913 0 20.4 0ZM2.4 6C2.4 5.04522 2.77928 4.12955 3.45442 3.45442C4.12955 2.77928 5.04522 2.4 6 2.4H20.4C21.3548 2.4 22.2705 2.77928 22.9456 3.45442C23.6207 4.12955 24 5.04522 24 6V18C24 18.9548 23.6207 19.8705 22.9456 20.5456C22.2705 21.2207 21.3548 21.6 20.4 21.6H6C5.04522 21.6 4.12955 21.2207 3.45442 20.5456C2.77928 19.8705 2.4 18.9548 2.4 18V6Z" fill="#1F1F1F"/>
<path fill-rule="evenodd" clip-rule="evenodd" d="M31.7472 2.592L24.6 7.2408C24.4339 7.34845 24.2971 7.4955 24.2016 7.66886C24.1061 7.84222 24.055 8.0365 24.0528 8.2344L23.988 14.5032C23.9855 14.7053 24.0342 14.9048 24.1294 15.0832C24.2247 15.2615 24.3634 15.4128 24.5328 15.5232L31.7424 20.208C31.9235 20.326 32.1331 20.3929 32.3491 20.4017C32.5651 20.4104 32.7794 20.3606 32.9695 20.2576C33.1595 20.1546 33.3182 20.0022 33.4287 19.8165C33.5393 19.6307 33.5977 19.4186 33.5976 19.2024V3.6C33.5981 3.38363 33.5401 3.17117 33.4297 2.98508C33.3193 2.799 33.1606 2.64622 32.9705 2.54293C32.7804 2.43963 32.5659 2.38966 32.3497 2.3983C32.1335 2.40693 31.9237 2.47386 31.7424 2.592M31.2 16.992L26.3976 13.8696L26.448 8.9016L31.2 5.8128V16.992Z" fill="#1F1F1F"/>
</svg>
