<svg width="40" height="40" viewBox="0 0 40 40" fill="none" xmlns="http://www.w3.org/2000/svg">
<path d="M20 30V25M20 25V20M20 25H15M20 25H25M21.6667 5H13.6667C11.8 5 10.8667 5 10.1533 5.36333C9.52609 5.68281 9.01614 6.19275 8.69667 6.82C8.33333 7.53333 8.33333 8.46667 8.33333 10.3333V29.6667C8.33333 31.5333 8.33333 32.4667 8.69667 33.18C9.01624 33.8072 9.52615 34.3171 10.1533 34.6367C10.865 35 11.7983 35 13.6617 35H26.3383C28.2017 35 29.1333 35 29.845 34.6367C30.4733 34.3167 30.9833 33.8067 31.3033 33.18C31.6667 32.4667 31.6667 31.5367 31.6667 29.6733V15M21.6667 5C22.1433 5.005 22.4433 5.02333 22.7317 5.09167C23.0717 5.175 23.3967 5.30833 23.695 5.49167C24.0317 5.69833 24.32 5.98667 24.895 6.56333L30.105 11.7717C30.6817 12.3483 30.9683 12.635 31.175 12.9717C31.3583 13.2717 31.4917 13.595 31.575 13.935C31.6417 14.2233 31.6617 14.525 31.6667 15M21.6667 5V9.66667C21.6667 11.5333 21.6667 12.4667 22.03 13.18C22.3496 13.8072 22.8595 14.3171 23.4867 14.6367C24.1983 15 25.1317 15 26.995 15H31.6667" stroke="#1F1F1F" stroke-width="2" stroke-linecap="round" stroke-linejoin="round"/>
</svg>
